<svg width="18" height="18" viewBox="0 0 18 18" fill="none" xmlns="http://www.w3.org/2000/svg">
<path d="M17.1192 9.27579L9.61917 0.942461C9.30333 0.590794 8.69667 0.590794 8.38083 0.942461L0.880833 9.27579C0.77288 9.39546 0.70202 9.54391 0.676869 9.70309C0.651719 9.86228 0.673362 10.0253 0.739166 10.1725C0.872499 10.4733 1.17083 10.6666 1.5 10.6666H3.16667V16.5C3.16667 16.721 3.25446 16.9329 3.41074 17.0892C3.56702 17.2455 3.77899 17.3333 4 17.3333H6.5C6.72101 17.3333 6.93297 17.2455 7.08925 17.0892C7.24553 16.9329 7.33333 16.721 7.33333 16.5V13.1666H10.6667V16.5C10.6667 16.721 10.7545 16.9329 10.9107 17.0892C11.067 17.2455 11.279 17.3333 11.5 17.3333H14C14.221 17.3333 14.433 17.2455 14.5893 17.0892C14.7455 16.9329 14.8333 16.721 14.8333 16.5V10.6666H16.5C16.6614 10.6673 16.8195 10.621 16.955 10.5334C17.0906 10.4458 17.1977 10.3206 17.2633 10.1732C17.329 10.0258 17.3503 9.86241 17.3247 9.70306C17.2991 9.54372 17.2277 9.39526 17.1192 9.27579Z" fill="#FAD70F"/>
</svg>
